<svg xmlns="http://www.w3.org/2000/svg" viewBox="0 0 363 80" width="363" height="80" role="img" aria-label="HayaFlash" xmlns:c2pa="http://c2pa.org/manifest"><metadata><c2pa:manifest>AAAWgmp1bWIAAAAeanVtZGMycGEAEQAQgAAAqgA4m3EDYzJwYQAAABZcanVtYgAAAEdqdW1kYzJtYQARABCAAACqADibcQN1cm46YzJwYToyZDYwN2FhYy1mZDY4LTQzMTktYjY1OC1iZDc0NWExOTIxYTcAAAADl2p1bWIAAAApanVtZGMyYXMAEQAQgAAAqgA4m3EDYzJwYS5hc3NlcnRpb25zAAAAALxqdW1iAAAARGp1bWRjYm9yABEAEIAAAKoAOJtxE2MycGEuaW5ncmVkaWVudC52MwAAAAAYYzJzaFCQkhhTCat1KyqALhD8n/0AAABwY2JvcqNpZGM6Zm9ybWF0bWltYWdlL3N2Zyt4bWxqaW5zdGFuY2VJRHgseG1wOmlpZDo5NTE0ZmVjOS02OWJiLTQyNWMtODNmZS03YzUwZDViZDU2MjZscmVsYXRpb25zaGlwaHBhcmVudE9mAAAB4mp1bWIAAABBanVtZGNib3IAEQAQgAAAqgA4m3ETYzJwYS5hY3Rpb25zLnYyAAAAABhjMnNozyP9Sx9S9+hDe4YKStLgBAAAAZljYm9yomdhY3Rpb25zgqJmYWN0aW9ua2MycGEub3BlbmVkanBhcmFtZXRlcnOha2luZ3JlZGllbnRzgaJjdXJseC1zZWxmI2p1bWJmPWMycGEuYXNzZXJ0aW9ucy9jMnBhLmluZ3JlZGllbnQudjNkaGFzaFggjTPedfbeMNYawbolVHsc/7qAPMkUDF0Mxp6Gona5F0mkZmFjdGlvbngdY29tLmFudGhyb3BpYy5jbGF1ZGUucHJvdmlkZWRqcGFyYW1ldGVyc6F4H2NvbS5hbnRocm9waWMub3JpZ2luLWNvbmZpZGVuY2VndW5rbm93bmtkZXNjcmlwdGlvbnhmQ2xhdWRlIHByb3ZpZGVkIHRoaXMgZmlsZSBhdCB0aGUgcmVxdWVzdCBvZiBhIHVzZXIgYW5kIG1heSBoYXZlIGNyZWF0ZWQgb3IgbW9kaWZpZWQgdGhlIGZpbGUgY29udGVudHMubXNvZnR3YXJlQWdlbnShZG5hbWVmQ2xhdWRlcmFsbEFjdGlvbnNJbmNsdWRlZPUAAADIanVtYgAAAEBqdW1kY2JvcgARABCAAACqADibcRNjMnBhLmhhc2guZGF0YQAAAAAYYzJzaJ3Lu3kMkScQHYIDKMKaWR0AAACAY2JvcqVjYWxnZnNoYTI1NmNwYWRNAAAAAAAAAAAAAAAAAGRoYXNoWCAqVHHyrmDMJYWG8izkeBjSzKRtaoEy3v41+cxyIerhLGRuYW1lbmp1bWJmIG1hbmlmZXN0amV4Y2x1c2lvbnOBomVzdGFydBi2Zmxlbmd0aBkeBAAAAj5qdW1iAAAAJ2p1bWRjMmNsABEAEIAAAKoAOJtxA2MycGEuY2xhaW0udjIAAAACD2Nib3KlY2FsZ2ZzaGEyNTZpc2lnbmF0dXJleE1zZWxmI2p1bWJmPS9jMnBhL3VybjpjMnBhOjJkNjA3YWFjLWZkNjgtNDMxOS1iNjU4LWJkNzQ1YTE5MjFhNy9jMnBhLnNpZ25hdHVyZWppbnN0YW5jZUlEeCx4bXA6aWlkOjFjNGRjMmYwLTRmMmMtNDk4YS04YWI2LTFmZGMzNWUxNTFhNXJjcmVhdGVkX2Fzc2VydGlvbnODomN1cmx4LXNlbGYjanVtYmY9YzJwYS5hc3NlcnRpb25zL2MycGEuaW5ncmVkaWVudC52M2RoYXNoWCCNM9519t4w1hrBuiVUexz/uoA8yRQMXQzGnoaidrkXSaJjdXJseCpzZWxmI2p1bWJmPWMycGEuYXNzZXJ0aW9ucy9jMnBhLmFjdGlvbnMudjJkaGFzaFggMa71YglnEPGvUKVYNy9h8L09pkeF+gfYgDwEdbvBvKaiY3VybHgpc2VsZiNqdW1iZj1jMnBhLmFzc2VydGlvbnMvYzJwYS5oYXNoLmRhdGFkaGFzaFggEZws/367EvhXQ00ukSZtcQJ+3/Y04/Cqgc4MpuNo/wh0Y2xhaW1fZ2VuZXJhdG9yX2luZm+jZG5hbWVvQW50aHJvcGljIEZpbGVzZ3ZlcnNpb25lMS4wLjBrc3BlY1ZlcnNpb25lMi40LjAAABA4anVtYgAAAChqdW1kYzJjcwARABCAAACqADibcQNjMnBhLnNpZ25hdHVyZQAAABAIY2JvctKEWQISogEmGCFZAgowggIGMIIBjaADAgECAhRA5aAK7sI50L64g/oGQgU9Z1UTADAKBggqhkjOPQQDAzBJMRcwFQYDVQQKEw5BbnRocm9waWMsIFBCQzEuMCwGA1UEAxMlQW50aHJvcGljIENvbnRlbnQgQ3JlZGVudGlhbHMgUm9vdCBDQTAeFw0yNjA4MDcxODQzNTZaFw0yODA4MDYxOTQzNTZaMEQxFzAVBgNVBAoTDkFudGhyb3BpYywgUEJDMSkwJwYDVQQDEyBBbnRocm9waWMgQ2xhdWRlIENvbnRlbnQgU2lnbmluZzBZMBMGByqGSM49AgEGCCqGSM49AwEHA0IABJh6CmvLUBgFFNU0vUKlOVtE6djd17L5SuwX0LemFisBM3dkd/3cyjxFA3Qo5S46fX0/ihY0VZ7mfb9KF703t5OjWDBWMA4GA1UdDwEB/wQEAwIHgDAVBgNVHSUEDjAMBgorBgEEAYPoXgIBMAwGA1UdEwEB/wQCMAAwHwYDVR0jBBgwFoAUzlHiBIFOZFsj+OPEz5o+nMHXXMIwCgYIKoZIzj0EAwMDZwAwZAIwMXMdFJ4BetLLVY7ORuE9noqbbAZOZn/aArXyTwFAZfKrPzxF2vPoJNf1+UCdg1XGAjBwX1zd9WGqYkqmL5SFqw1QySjr1zJfpJM9+1rdDwSPLMOPOjKuiXjoU/pUUeG9RwmhY3BhZFkNngAAAAAAAAAAAAAAAAAAAAAAAAAAAAAAAAAAAAAAAAAAAAAAAAAAAAAAAAAAAAAAAAAAAAAAAAAAAAAAAAAAAAAAAAAAAAAAAAAAAAAAAAAAAAAAAAAAAAAAAAAAAAAAAAAAAAAAAAAAAAAAAAAAAAAAAAAAAAAAAAAAAAAAAAAAAAAAAAAAAAAAAAAAAAAAAAAAAAAAAAAAAAAAAAAAAAAAAAAAAAAAAAAAAAAAAAAAAAAAAAAAAAAAAAAAAAAAAAAAAAAAAAAAAAAAAAAAAAAAAAAAAAAAAAAAAAAAAAAAAAAAAAAAAAAAAAAAAAAAAAAAAAAAAAAAAAAAAAAAAAAAAAAAAAAAAAAAAAAAAAAAAAAAAAAAAAAAAAAAAAAAAAAAAAAAAAAAAAAAAAAAAAAAAAAAAAAAAAAAAAAAAAAAAAAAAAAAAAAAAAAAAAAAAAAAAAAAAAAAAAAAAAAAAAAAAAAAAAAAAAAAAAAAAAAAAAAAAAAAAAAAAAAAAAAAAAAAAAAAAAAAAAAAAAAAAAAAAAAAAAAAAAAAAAAAAAAAAAAAAAAAAAAAAAAAAAAAAAAAAAAAAAAAAAAAAAAAAAAAAAAAAAAAAAAAAAAAAAAAAAAAAAAAAAAAAAAAAAAAAAAAAAAAAAAAAAAAAAAAAAAAAAAAAAAAAAAAAAAAAAAAAAAAAAAAAAAAAAAAAAAAAAAAAAAAAAAAAAAAAAAAAAAAAAAAAAAAAAAAAAAAAAAAAAAAAAAAAAAAAAAAAAAAAAAAAAAAAAAAAAAAAAAAAAAAAAAAAAAAAAAAAAAAAAAAAAAAAAAAAAAAAAAAAAAAAAAAAAAAAAAAAAAAAAAAAAAAAAAAAAAAAAAAAAAAAAAAAAAAAAAAAAAAAAAAAAAAAAAAAAAAAAAAAAAAAAAAAAAAAAAAAAAAAAAAAAAAAAAAAAAAAAAAAAAAAAAAAAAAAAAAAAAAAAAAAAAAAAAAAAAAAAAAAAAAAAAAAAAAAAAAAAAAAAAAAAAAAAAAAAAAAAAAAAAAAAAAAAAAAAAAAAAAAAAAAAAAAAAAAAAAAAAAAAAAAAAAAAAAAAAAAAAAAAAAAAAAAAAAAAAAAAAAAAAAAAAAAAAAAAAAAAAAAAAAAAAAAAAAAAAAAAAAAAAAAAAAAAAAAAAAAAAAAAAAAAAAAAAAAAAAAAAAAAAAAAAAAAAAAAAAAAAAAAAAAAAAAAAAAAAAAAAAAAAAAAAAAAAAAAAAAAAAAAAAAAAAAAAAAAAAAAAAAAAAAAAAAAAAAAAAAAAAAAAAAAAAAAAAAAAAAAAAAAAAAAAAAAAAAAAAAAAAAAAAAAAAAAAAAAAAAAAAAAAAAAAAAAAAAAAAAAAAAAAAAAAAAAAAAAAAAAAAAAAAAAAAAAAAAAAAAAAAAAAAAAAAAAAAAAAAAAAAAAAAAAAAAAAAAAAAAAAAAAAAAAAAAAAAAAAAAAAAAAAAAAAAAAAAAAAAAAAAAAAAAAAAAAAAAAAAAAAAAAAAAAAAAAAAAAAAAAAAAAAAAAAAAAAAAAAAAAAAAAAAAAAAAAAAAAAAAAAAAAAAAAAAAAAAAAAAAAAAAAAAAAAAAAAAAAAAAAAAAAAAAAAAAAAAAAAAAAAAAAAAAAAAAAAAAAAAAAAAAAAAAAAAAAAAAAAAAAAAAAAAAAAAAAAAAAAAAAAAAAAAAAAAAAAAAAAAAAAAAAAAAAAAAAAAAAAAAAAAAAAAAAAAAAAAAAAAAAAAAAAAAAAAAAAAAAAAAAAAAAAAAAAAAAAAAAAAAAAAAAAAAAAAAAAAAAAAAAAAAAAAAAAAAAAAAAAAAAAAAAAAAAAAAAAAAAAAAAAAAAAAAAAAAAAAAAAAAAAAAAAAAAAAAAAAAAAAAAAAAAAAAAAAAAAAAAAAAAAAAAAAAAAAAAAAAAAAAAAAAAAAAAAAAAAAAAAAAAAAAAAAAAAAAAAAAAAAAAAAAAAAAAAAAAAAAAAAAAAAAAAAAAAAAAAAAAAAAAAAAAAAAAAAAAAAAAAAAAAAAAAAAAAAAAAAAAAAAAAAAAAAAAAAAAAAAAAAAAAAAAAAAAAAAAAAAAAAAAAAAAAAAAAAAAAAAAAAAAAAAAAAAAAAAAAAAAAAAAAAAAAAAAAAAAAAAAAAAAAAAAAAAAAAAAAAAAAAAAAAAAAAAAAAAAAAAAAAAAAAAAAAAAAAAAAAAAAAAAAAAAAAAAAAAAAAAAAAAAAAAAAAAAAAAAAAAAAAAAAAAAAAAAAAAAAAAAAAAAAAAAAAAAAAAAAAAAAAAAAAAAAAAAAAAAAAAAAAAAAAAAAAAAAAAAAAAAAAAAAAAAAAAAAAAAAAAAAAAAAAAAAAAAAAAAAAAAAAAAAAAAAAAAAAAAAAAAAAAAAAAAAAAAAAAAAAAAAAAAAAAAAAAAAAAAAAAAAAAAAAAAAAAAAAAAAAAAAAAAAAAAAAAAAAAAAAAAAAAAAAAAAAAAAAAAAAAAAAAAAAAAAAAAAAAAAAAAAAAAAAAAAAAAAAAAAAAAAAAAAAAAAAAAAAAAAAAAAAAAAAAAAAAAAAAAAAAAAAAAAAAAAAAAAAAAAAAAAAAAAAAAAAAAAAAAAAAAAAAAAAAAAAAAAAAAAAAAAAAAAAAAAAAAAAAAAAAAAAAAAAAAAAAAAAAAAAAAAAAAAAAAAAAAAAAAAAAAAAAAAAAAAAAAAAAAAAAAAAAAAAAAAAAAAAAAAAAAAAAAAAAAAAAAAAAAAAAAAAAAAAAAAAAAAAAAAAAAAAAAAAAAAAAAAAAAAAAAAAAAAAAAAAAAAAAAAAAAAAAAAAAAAAAAAAAAAAAAAAAAAAAAAAAAAAAAAAAAAAAAAAAAAAAAAAAAAAAAAAAAAAAAAAAAAAAAAAAAAAAAAAAAAAAAAAAAAAAAAAAAAAAAAAAAAAAAAAAAAAAAAAAAAAAAAAAAAAAAAAAAAAAAAAAAAAAAAAAAAAAAAAAAAAAAAAAAAAAAAAAAAAAAAAAAAAAAAAAAAAAAAAAAAAAAAAAAAAAAAAAAAAAAAAAAAAAAAAAAAAAAAAAAAAAAAAAAAAAAAAAAAAAAAAAAAAAAAAAAAAAAAAAAAAAAAAAAAAAAAAAAAAAAAAAAAAAAAAAAAAAAAAAAAAAAAAAAAAAAAAAAAAAAAAAAAAAAAAAAAAAAAAAAAAAAAAAAAAAAAAAAAAAAAAAAAAAAAAAAAAAAAAAAAAAAAAAAAAAAAAAAAAAAAAAAAAAAAAAAAAAAAAAAAAAAAAAAAAAAAAAAAAAAAAAAAAAAAAAAAAAAAAAAAAAAAAAAAAAAAAAAAAAAAAAAAAAAAAAAAAAAAAAAAAAAAAAAAAAAAAAAAAAAAAAAAAAAAAAAAAAAAAAAAAAAAAAAAAAAAAAAAAAAAAAAAAAAAAAAAAAAAAAAAAAAAAAAAAAAAAAAAAAAAAAAAAAAAAAAAAAAAAAAAAAAAAAAAAAAAAAAAAAAAAAAAAAAAAAAAAAAAAAAAAAAAAAAAAAAAAAAAAAAAAAAAAAAAAAAAAAAAAAAAAAAAAAAAAAAAAAAAAAAAAAAAAAAAAAAAAAAAAAAAAAAAAAAAAAAAAAAAAAAAAAAAAAAAAAAAAAAAAAAAAAAAAAAAAAAAAAAAAAAAAAAAAAAAAAAAAAAAAAAAAAAAAAAAAAAAAAAAAAAAAAAAAAAAAAAAAAAAAAAAAAAAAAAAAAAAAAAAAAAAAAAAAAAAAAAAAAAAAAAAAAAAAAAAAAAAAAAAAAAAAAAAAAAAAAAAAAAAAAAAAAAAAAAAAAAAAAAAAAAAAAAAAAAAAAAAAAAAAAAAAAAAAAAAAAAAAAAAAAAAAAAAAAAAAAAAAAAAAAAAAAAAAAAAAAAAAAAAAAAAAAAAAAAAAAAAAAAAAAAAAAAAAAAAAAAAAAAAAAAAAAAAAAAAAAAAAAAAAAAAAAAAAAAAAAAAAAAAAAAAAAAAAAAAAAAAAAAAAAAAAAAAAAAAAAAAAAAAAAAAAAAAAAAAAAAAAAAAAAAAAAAAAAAAAAAAAAAAAAAAAAAAAAAAAAAAAAAAAAAAAAAAAAAAAAAAAAAAAAAAAAAAAAAAAAAAAAAAAAAAAAAAAAAAAAAAAAAAAAAAAAAAAAAAAAAAAAAAAAAAAAAAAAAAAAAAAAAAAAAAAAAAAAAAAAAAAAAAAAAAAAAAAAAAAAAAAAAAAAAAAAAAAAAAAAAAAAAAAAAAAAAAAAAAAAAAAAAAAAAAAAAAAAAAAAAAAAAAAAAAAAAAAAAAAAAAAAAAAAAAAAAAAAAAAAAAAAAAAAAAAAAAAAAAAAAAAAAAAAAAAAAAAAAAAAAAAAAAAAAAAAAAAAAAAAAAAAAAAAAAAAAAAAAAAAAAAAAAAAAAAAAAAAAAAAAAAAAAAAAAAAAAAAAAAAAAAAAAAAAAAAAAAAAAAAAAAAAAAAAAAAAAAAAAAAAAAAAAAAAAAAAAAAAAAAAAAAAAAAAAAAAAAAAAAAAAAAAAAAAAAAAAAAAAAAAAAAAAAAAAAAAAAAAAAAAAAAAAAAAAAAAAAAAAAAAAAAAAAAAAAAAAAAAAAAAAAAAAAAAAAAAAAAAAAAAAAAAAAAAAAAAAAAAAAAAAAAAAAAAAAAAAAAAAAAAAAAAAAAAAAAAAAAAAAAAAAAAAAAPZYQIb/HmrIjssPO/DQZuhXKdMegOKFKlO89lsIEwkCw/NQ0YL5XU8HxQtZeEmuvYQjezGEiZrNZDjyjitql7xlnwc=</c2pa:manifest></metadata><defs><linearGradient id="hfLogoGrad" x1="0" y1="0" x2="0.35" y2="1"><stop offset="0" stop-color="#FFC24A"/><stop offset="0.55" stop-color="#FF8A2B"/><stop offset="1" stop-color="#FF4D2E"/></linearGradient></defs><path d="M38 4 L12 36 H29 L24 60 L52 26 H35 Z" fill="url(#hfLogoGrad)" transform="translate(-10 8) scale(1)"/><g transform="translate(-20 0)"><path d="M116.47200000000001 18.519999999999996V58.0H105.49600000000001V42.152H92.112V58.0H81.136V18.519999999999996H92.112V33.36H105.49600000000001V18.519999999999996Z M133.216 26.192Q136.464 26.192 138.816 27.48Q141.168 28.768 142.456 30.951999999999998V26.584H153.43200000000002V58.0H142.456V53.632Q141.168 55.816 138.788 57.104Q136.40800000000002 58.392 133.216 58.392Q129.464 58.392 126.412 56.432Q123.36 54.472 121.596 50.804Q119.832 47.135999999999996 119.832 42.263999999999996Q119.832 37.391999999999996 121.596 33.751999999999995Q123.36 30.112 126.412 28.152Q129.464 26.192 133.216 26.192ZM136.744 35.768Q134.28 35.768 132.656 37.476Q131.032 39.184 131.032 42.263999999999996Q131.032 45.288 132.656 47.052Q134.28 48.816 136.744 48.816Q139.152 48.816 140.80399999999997 47.08Q142.456 45.344 142.456 42.263999999999996Q142.456 39.239999999999995 140.80399999999997 37.504Q139.152 35.768 136.744 35.768Z M192.40800000000002 26.584 172.472 72.952H160.544L168.048 56.656L155.168 26.584H167.376L173.984 44.391999999999996L180.368 26.584Z M205.73600000000002 26.192Q208.984 26.192 211.336 27.48Q213.68800000000002 28.768 214.976 30.951999999999998V26.584H225.952V58.0H214.976V53.632Q213.68800000000002 55.816 211.308 57.104Q208.928 58.392 205.73600000000002 58.392Q201.984 58.392 198.93200000000002 56.432Q195.88 54.472 194.11599999999999 50.804Q192.352 47.135999999999996 192.352 42.263999999999996Q192.352 37.391999999999996 194.11599999999999 33.751999999999995Q195.88 30.112 198.93200000000002 28.152Q201.984 26.192 205.73600000000002 26.192ZM209.264 35.768Q206.8 35.768 205.17600000000002 37.476Q203.55200000000002 39.184 203.55200000000002 42.263999999999996Q203.55200000000002 45.288 205.17600000000002 47.052Q206.8 48.816 209.264 48.816Q211.67200000000003 48.816 213.324 47.08Q214.976 45.344 214.976 42.263999999999996Q214.976 39.239999999999995 213.324 37.504Q211.67200000000003 35.768 209.264 35.768Z" fill="#FFFFFF"/><path d="M257.872 18.519999999999996V27.256H242.08V34.2H253.728V42.544H242.08V58.0H231.104V18.519999999999996Z M272.37600000000003 16.560000000000002V58.0H261.40000000000003V16.560000000000002Z M289.12 26.192Q292.368 26.192 294.72 27.48Q297.072 28.768 298.36 30.951999999999998V26.584H309.336V58.0H298.36V53.632Q297.072 55.816 294.692 57.104Q292.312 58.392 289.12 58.392Q285.368 58.392 282.31600000000003 56.432Q279.264 54.472 277.5 50.804Q275.736 47.135999999999996 275.736 42.263999999999996Q275.736 37.391999999999996 277.5 33.751999999999995Q279.264 30.112 282.31600000000003 28.152Q285.368 26.192 289.12 26.192ZM292.648 35.768Q290.18399999999997 35.768 288.55999999999995 37.476Q286.936 39.184 286.936 42.263999999999996Q286.936 45.288 288.55999999999995 47.052Q290.18399999999997 48.816 292.648 48.816Q295.056 48.816 296.70799999999997 47.08Q298.36 45.344 298.36 42.263999999999996Q298.36 39.239999999999995 296.70799999999997 37.504Q295.056 35.768 292.648 35.768Z M312.864 47.416H323.50399999999996Q323.72799999999995 48.928 324.904 49.768Q326.08 50.608 327.816 50.608Q329.15999999999997 50.608 329.94399999999996 50.048Q330.72799999999995 49.488 330.72799999999995 48.592Q330.72799999999995 47.416 329.43999999999994 46.855999999999995Q328.152 46.296 325.18399999999997 45.624Q321.82399999999996 44.952 319.58399999999995 44.111999999999995Q317.344 43.272 315.692 41.367999999999995Q314.03999999999996 39.464 314.03999999999996 36.216Q314.03999999999996 33.416 315.55199999999996 31.147999999999996Q317.06399999999996 28.88 320.00399999999996 27.536Q322.94399999999996 26.192 327.08799999999997 26.192Q333.248 26.192 336.77599999999995 29.215999999999998Q340.304 32.239999999999995 340.864 37.168H330.952Q330.67199999999997 35.656 329.63599999999997 34.843999999999994Q328.59999999999997 34.032 326.864 34.032Q325.52 34.032 324.82 34.536Q324.12 35.04 324.12 35.936Q324.12 37.056 325.408 37.644Q326.69599999999997 38.232 329.55199999999996 38.848Q332.96799999999996 39.576 335.236 40.471999999999994Q337.50399999999996 41.367999999999995 339.212 43.355999999999995Q340.91999999999996 45.344 340.91999999999996 48.76Q340.91999999999996 51.504 339.32399999999996 53.688Q337.72799999999995 55.872 334.78799999999995 57.132000000000005Q331.84799999999996 58.392 327.87199999999996 58.392Q323.616 58.392 320.284 56.964Q316.952 55.536 315.02 53.044Q313.08799999999997 50.552 312.864 47.416Z M377.544 39.688V58.0H366.568V41.144Q366.568 38.456 365.168 36.916000000000004Q363.768 35.376000000000005 361.41599999999994 35.376000000000005Q358.95199999999994 35.376000000000005 357.55199999999996 36.916000000000004Q356.152 38.456 356.152 41.144V58.0H345.176V16.560000000000002H356.152V31.064Q357.60799999999995 28.936 360.09999999999997 27.619999999999997Q362.592 26.304 365.84 26.304Q371.21599999999995 26.304 374.38 29.915999999999997Q377.544 33.528 377.544 39.688Z" fill="#FF4D2E"/></g></svg>
